<?xml version="1.0" encoding="UTF-8" standalone="no"?>
<!DOCTYPE svg PUBLIC "-//W3C//DTD SVG 1.1//EN" "http://www.w3.org/Graphics/SVG/1.1/DTD/svg11.dtd">
<svg width="100%" height="100%" viewBox="0 0 171 51" version="1.1" xmlns="http://www.w3.org/2000/svg" xmlns:xlink="http://www.w3.org/1999/xlink" xml:space="preserve" xmlns:serif="http://www.serif.com/" style="fill-rule:evenodd;clip-rule:evenodd;stroke-linejoin:round;stroke-miterlimit:2;">
    <g transform="matrix(1,0,0,1,-5218.39,-2538.82)">
        <g transform="matrix(6.6364e-17,-1.08381,2.82725,1.73119e-16,4926.78,2788.81)">
            <path d="M230.663,157.637L230.663,163.565L184.274,163.565L184.274,145.782L230.663,145.782L230.663,151.71L217.272,154.674L230.663,157.637Z" style="fill:rgb(76,0,255);"/>
        </g>
        <g transform="matrix(6.6364e-17,-1.08381,0.942417,5.77064e-17,5097.76,2788.81)">
            <rect x="184.274" y="145.782" width="46.389" height="17.783" style="fill:rgb(76,0,255);"/>
        </g>
        <g transform="matrix(1.08381,0,1.2326e-32,0.942417,5018.67,2418.19)">
            <rect x="184.274" y="145.782" width="46.389" height="17.783" style="fill:rgb(76,0,255);"/>
        </g>
        <g transform="matrix(2,0,0,2,5050.26,2353.81)">
            <circle cx="126.774" cy="105.071" r="12.569" style="fill:rgb(76,0,255);"/>
        </g>
    </g>
</svg>
